<svg width="13" height="8" viewBox="0 0 13 8" fill="none" xmlns="http://www.w3.org/2000/svg">
<path d="M5.87297 7.65387C5.92857 7.72237 6.00295 7.77838 6.08973 7.81707C6.1765 7.85576 6.27307 7.87598 6.3711 7.87598C6.46913 7.87598 6.56569 7.85576 6.65246 7.81707C6.73924 7.77838 6.81362 7.72237 6.86922 7.65387L12.3231 0.970674C12.3863 0.893589 12.4233 0.803301 12.4302 0.70962C12.437 0.615939 12.4135 0.522448 12.3622 0.439304C12.3109 0.356161 12.2336 0.286544 12.1389 0.238019C12.0442 0.189494 11.9356 0.163915 11.825 0.164063H0.917193C0.806808 0.16445 0.698636 0.190357 0.604309 0.238999C0.509983 0.28764 0.43307 0.357176 0.381843 0.440127C0.330617 0.523079 0.307014 0.616307 0.313573 0.709788C0.320132 0.803268 0.356605 0.893463 0.41907 0.970674L5.87297 7.65387Z" fill="#4E5983"/>
</svg>
