<svg width="28" height="27" viewBox="0 0 28 27" fill="none" xmlns="http://www.w3.org/2000/svg">
<g clip-path="url(#clip0)">
<path d="M13.8836 26.3807C21.183 26.3807 27.1004 20.5153 27.1004 13.2798C27.1004 6.04435 21.183 0.178864 13.8836 0.178864C6.58416 0.178864 0.666809 6.04435 0.666809 13.2798C0.666809 20.5153 6.58416 26.3807 13.8836 26.3807Z" fill="#3B5998"/>
<path d="M17.2039 13.7942H14.8455V22.3584H11.2724V13.7942H9.573V10.7844H11.2724V8.83666C11.2724 7.44385 11.9399 5.26285 14.8773 5.26285L17.5241 5.27382V8.19537H15.6037C15.2887 8.19537 14.8458 8.35137 14.8458 9.01578V10.7872H17.5161L17.2039 13.7942Z" fill="white"/>
</g>
<defs>
<clipPath id="clip0">
<rect width="26.4335" height="26.2019" fill="white" transform="translate(0.663269 0.179688)"/>
</clipPath>
</defs>
</svg>
