<svg width="28" height="29" viewBox="0 0 28 29" fill="none" xmlns="http://www.w3.org/2000/svg">
<g clip-path="url(#clip0)">
<path d="M2.04164 2.79833C-0.134516 5.0389 0.310868 7.41901 0.310868 14.6497C0.310868 20.6543 -0.746054 26.6738 4.78548 28.0908C6.51278 28.5312 21.8174 28.5312 23.5424 28.0886C25.8455 27.4995 27.7193 25.6478 27.9755 22.4191C28.0112 21.9684 28.0112 7.33895 27.9743 6.87917C27.702 3.43996 25.5662 1.45787 22.752 1.05642C22.107 0.963779 21.9778 0.93633 18.6685 0.930611C6.93048 0.93633 4.3574 0.418219 2.04164 2.79833Z" fill="url(#paint0_linear)"/>
<path d="M14.1507 4.52345C9.96107 4.52345 5.98261 4.15403 4.463 8.01984C3.83531 9.6165 3.92646 11.6901 3.92646 14.6592C3.92646 17.2646 3.84223 19.7134 4.463 21.2974C5.97915 25.1655 9.98992 24.795 14.1484 24.795C18.1603 24.795 22.2968 25.209 23.8349 21.2974C24.4638 19.6848 24.3714 17.6421 24.3714 14.6592C24.3714 10.6996 24.5918 8.14337 22.6545 6.22418C20.693 4.27984 18.0403 4.52345 14.1461 4.52345H14.1507ZM13.2345 6.34999C21.9738 6.33627 23.0861 5.37325 22.4722 18.7515C22.2541 23.4831 18.6195 22.9639 14.1518 22.9639C6.00569 22.9639 5.77146 22.7328 5.77146 14.6546C5.77146 6.48267 6.41761 6.35457 13.2345 6.34771V6.34999ZM19.6084 8.03243C18.9311 8.03243 18.3818 8.57684 18.3818 9.24821C18.3818 9.91959 18.9311 10.464 19.6084 10.464C20.2857 10.464 20.8349 9.91959 20.8349 9.24821C20.8349 8.57684 20.2857 8.03243 19.6084 8.03243ZM14.1507 9.45409C11.2511 9.45409 8.90069 11.785 8.90069 14.6592C8.90069 17.5334 11.2511 19.8632 14.1507 19.8632C17.0503 19.8632 19.3995 17.5334 19.3995 14.6592C19.3995 11.785 17.0503 9.45409 14.1507 9.45409ZM14.1507 11.2806C18.6565 11.2806 18.6622 18.0378 14.1507 18.0378C9.64607 18.0378 9.63915 11.2806 14.1507 11.2806Z" fill="white"/>
</g>
<defs>
<linearGradient id="paint0_linear" x1="2.09474" y1="26.627" x2="27.6375" y2="4.32456" gradientUnits="userSpaceOnUse">
<stop stop-color="#FFDD55"/>
<stop offset="0.5" stop-color="#FF543E"/>
<stop offset="1" stop-color="#C837AB"/>
</linearGradient>
<clipPath id="clip0">
<rect width="27.6923" height="27.4496" fill="white" transform="translate(0.308136 0.931641)"/>
</clipPath>
</defs>
</svg>
