<svg width="28" height="27" viewBox="0 0 28 27" fill="none" xmlns="http://www.w3.org/2000/svg">
<g clip-path="url(#clip0)">
<path d="M14.0144 26.3814C21.3138 26.3814 27.2312 20.5159 27.2312 13.2804C27.2312 6.045 21.3138 0.179504 14.0144 0.179504C6.71496 0.179504 0.797607 6.045 0.797607 13.2804C0.797607 20.5159 6.71496 26.3814 14.0144 26.3814Z" fill="#4D76A1"/>
<path fill-rule="evenodd" clip-rule="evenodd" d="M13.5175 19.0268H14.5549C14.5549 19.0268 14.8682 18.9927 15.0282 18.8217C15.1754 18.6648 15.1707 18.3701 15.1707 18.3701C15.1707 18.3701 15.1505 16.9904 15.7965 16.7872C16.4333 16.587 17.2511 18.1207 18.1179 18.7104C18.7733 19.1566 19.2714 19.0588 19.2714 19.0588L21.589 19.0268C21.589 19.0268 22.8014 18.9528 22.2265 18.0079C22.1794 17.9306 21.8917 17.3089 20.5033 16.0315C19.0501 14.6945 19.2447 14.9107 20.9953 12.598C22.0613 11.1895 22.4876 10.3297 22.3544 9.96137C22.2274 9.61059 21.4434 9.70331 21.4434 9.70331L18.8338 9.71942C18.8338 9.71942 18.6404 9.69327 18.4969 9.77827C18.3568 9.86165 18.2665 10.0559 18.2665 10.0559C18.2665 10.0559 17.8535 11.1459 17.3027 12.0728C16.1407 14.0286 15.6761 14.1319 15.4862 14.0104C15.0444 13.7274 15.1547 12.8733 15.1547 12.2666C15.1547 10.3712 15.4447 9.58094 14.59 9.37636C14.3063 9.3084 14.0976 9.26356 13.3721 9.25632C12.441 9.24674 11.653 9.25912 11.2067 9.47584C10.9099 9.61994 10.6809 9.94105 10.8203 9.9595C10.9928 9.98238 11.3834 10.0639 11.5905 10.3434C11.8579 10.704 11.8485 11.5139 11.8485 11.5139C11.8485 11.5139 12.0021 13.7451 11.4897 14.0223C11.1379 14.2124 10.6554 13.8243 9.61947 12.0499C9.08866 11.141 8.68791 10.1363 8.68791 10.1363C8.68791 10.1363 8.61063 9.94852 8.4728 9.8481C8.30553 9.72643 8.07181 9.68766 8.07181 9.68766L5.5921 9.70378C5.5921 9.70378 5.21985 9.71405 5.0832 9.87449C4.96163 10.0172 5.07355 10.3124 5.07355 10.3124C5.07355 10.3124 7.0149 14.8145 9.21306 17.0833C11.2286 19.1634 13.5175 19.0268 13.5175 19.0268Z" fill="white"/>
</g>
<defs>
<clipPath id="clip0">
<rect width="26.4335" height="26.2019" fill="white" transform="translate(0.797607 0.179504)"/>
</clipPath>
</defs>
</svg>
