<svg width="24" height="24" viewBox="0 0 24 24" fill="none" xmlns="http://www.w3.org/2000/svg">
<path d="M13.138 11.9136L10.599 11.9141V15.1021H13.138C14.0169 15.1021 14.7321 14.3869 14.7321 13.5078C14.7321 13.0844 14.5656 12.6847 14.2633 12.3824C13.961 12.08 13.5613 11.9135 13.138 11.9136Z" fill="#FFBB36"/>
<path d="M14.0446 9.31175C14.0447 8.97627 13.9126 8.65955 13.6728 8.41981C13.433 8.18008 13.1163 8.04805 12.7808 8.0481H10.599V10.575H12.8014C13.4887 10.5638 14.0446 10.0017 14.0446 9.31175Z" fill="#FFBB36"/>
<path d="M11.7842 3.89575C7.55024 3.89575 4.10565 7.34036 4.10565 11.5743C4.10565 15.8083 7.55024 19.2529 11.7842 19.2529C16.0182 19.2529 19.4628 15.8083 19.4628 11.5743C19.4628 7.34036 16.0182 3.89575 11.7842 3.89575ZM13.1383 16.4413H12.4539V17.7351H11.1146V16.4413H8.1664V15.102H9.26006V8.0467H8.1664V6.70741H11.1146V5.41361H12.4539V6.70741H12.7811C13.4743 6.70737 14.1274 6.97871 14.6202 7.47147C15.1129 7.96424 15.3842 8.61741 15.3842 9.31063C15.3842 9.97465 15.1339 10.5811 14.7233 11.0414C14.897 11.1539 15.0606 11.2851 15.2106 11.4352C15.7659 11.9905 16.0717 12.7266 16.0716 13.5077C16.0717 15.1253 14.7558 16.4413 13.1383 16.4413Z" fill="#FFBB36"/>
<path d="M19.8658 3.49336C17.7072 1.33481 14.8372 0.145996 11.7845 0.145996C8.73186 0.145996 5.8619 1.33481 3.70328 3.49336C1.54475 5.652 0.355957 8.52199 0.355957 11.5747C0.355957 14.6274 1.54475 17.4974 3.70328 19.6561C5.8619 21.8146 8.73186 23.0034 11.7845 23.0034C14.8372 23.0034 17.7072 21.8146 19.8658 19.6561C22.0243 17.4974 23.2131 14.6274 23.2131 11.5747C23.2131 8.52199 22.0243 5.652 19.8658 3.49336ZM11.7845 20.5927C6.81208 20.5927 2.76667 16.5472 2.76667 11.5747C2.76667 6.60219 6.81208 2.55674 11.7845 2.55674C16.757 2.55674 20.8024 6.60219 20.8024 11.5747C20.8024 16.5472 16.757 20.5927 11.7845 20.5927Z" fill="#FFBB36"/>
</svg>
