<svg width="18" height="22" viewBox="0 0 18 22" fill="none" xmlns="http://www.w3.org/2000/svg">
<path d="M15.1018 2.26915C14.1427 1.18272 12.407 0.717285 10.1865 0.717285H3.7425C3.28865 0.717285 2.90293 1.04514 2.83093 1.48872L0.147687 18.3715C0.0949722 18.7045 0.354687 19.0054 0.694115 19.0054H4.67212L5.67112 12.7182L5.64026 12.9162C5.71097 12.4726 6.0954 12.1448 6.54926 12.1448H8.43926C12.1537 12.1448 15.0607 10.6482 15.9105 6.31917C15.9363 6.1906 15.9761 5.94374 15.9761 5.94374C16.2178 4.34173 15.9748 3.2553 15.1018 2.26915Z" fill="#03A9F4"/>
<path d="M16.9838 6.76514C16.0606 11.0271 13.1151 13.2822 8.44019 13.2822H6.74561L5.48047 21.2893H8.22933C8.62662 21.2893 8.96476 21.0026 9.02647 20.613L9.05862 20.4433L9.69119 16.4693L9.73233 16.2508C9.79405 15.8612 10.1322 15.5745 10.5282 15.5745H11.0309C14.2799 15.5745 16.8231 14.2657 17.5662 10.4794C17.8645 8.95977 17.7205 7.68567 16.9838 6.76514Z" fill="#03A9F4"/>
</svg>
