<svg width="22" height="10" viewBox="0 0 22 10" fill="none" xmlns="http://www.w3.org/2000/svg">
<path d="M3.40234 5.25474V8.12026C3.40234 8.7393 3.47005 9.12379 3.60547 9.27372C3.78925 9.48651 4.06734 9.59291 4.43973 9.59291H4.81696V9.86133H0.602121V9.59291H0.972098C1.38802 9.59291 1.68545 9.4575 1.8644 9.18666C1.96112 9.03674 2.00949 8.68127 2.00949 8.12026V1.76535C2.00949 1.1463 1.9442 0.761813 1.81362 0.611887C1.625 0.399089 1.34449 0.292691 0.972098 0.292691H0.602121V0.0242755H4.20759C5.0878 0.0242755 5.78181 0.116165 6.28962 0.299945C6.79743 0.478889 7.22545 0.783576 7.57366 1.21401C7.92187 1.64444 8.09598 2.15467 8.09598 2.7447C8.09598 3.54753 7.82998 4.20043 7.29799 4.7034C6.77083 5.20638 6.02362 5.45787 5.05636 5.45787C4.81938 5.45787 4.56306 5.44094 4.28739 5.40709C4.01172 5.37323 3.7167 5.32245 3.40234 5.25474ZM3.40234 4.84124C3.65867 4.8896 3.88597 4.92587 4.08426 4.95006C4.28255 4.97424 4.45182 4.98633 4.59208 4.98633C5.09505 4.98633 5.5279 4.79288 5.89062 4.40597C6.25818 4.01423 6.44196 3.50884 6.44196 2.88979C6.44196 2.46419 6.35491 2.07003 6.1808 1.70731C6.0067 1.33975 5.76004 1.0665 5.44085 0.887557C5.12165 0.703777 4.75893 0.611887 4.35268 0.611887C4.10603 0.611887 3.78925 0.657832 3.40234 0.749722V4.84124ZM14.9277 9.86133L11.1263 1.58399V8.15653C11.1263 8.76107 11.1916 9.1383 11.3222 9.28823C11.5011 9.49135 11.7841 9.59291 12.171 9.59291H12.5192V9.86133H9.09507V9.59291H9.44328C9.8592 9.59291 10.1542 9.46717 10.3283 9.21568C10.4347 9.06092 10.4879 8.70787 10.4879 8.15653V1.72907C10.4879 1.29381 10.4396 0.979446 10.3428 0.785994C10.2751 0.645741 10.1494 0.52967 9.9656 0.43778C9.78666 0.341054 9.49648 0.292691 9.09507 0.292691V0.0242755H11.8808L15.45 7.72126L18.9611 0.0242755H21.7469V0.292691H21.4059C20.9851 0.292691 20.6877 0.418435 20.5136 0.669923C20.4072 0.824685 20.354 1.17774 20.354 1.72907V8.15653C20.354 8.76107 20.4217 9.1383 20.5571 9.28823C20.7361 9.49135 21.019 9.59291 21.4059 9.59291H21.7469V9.86133H17.5683V9.59291H17.9165C18.3373 9.59291 18.6323 9.46717 18.8015 9.21568C18.9079 9.06092 18.9611 8.70787 18.9611 8.15653V1.58399L15.1671 9.86133H14.9277Z" fill="#DA251C"/>
</svg>
